<svg width="162" height="48" viewBox="0 0 162 48" fill="none" xmlns="http://www.w3.org/2000/svg">
<g clip-path="url(#clip0_7083_1330)">
<path d="M34.0951 5.4832C35.6155 5.4832 36.8038 4.34452 36.9611 2.71532C37.0135 1.99707 36.8038 1.33138 36.3669 0.875903C35.93 0.40291 35.3009 0.140137 34.5495 0.140137C33.0291 0.140137 31.7883 1.24379 31.6834 2.6978C31.631 3.53868 31.8582 4.27444 32.3126 4.78247C32.732 5.23795 33.3436 5.4832 34.0776 5.4832H34.0951Z" fill="#231F20"/>
<path d="M127.503 5.44805C129.023 5.44805 130.212 4.30936 130.369 2.68016C130.421 1.96192 130.212 1.29622 129.775 0.840747C129.338 0.367754 128.709 0.10498 127.957 0.10498C126.437 0.10498 125.196 1.20863 125.091 2.66265C125.039 3.50352 125.266 4.23929 125.72 4.74732C126.14 5.20279 126.751 5.44805 127.485 5.44805H127.503Z" fill="#231F20"/>
<path d="M161.179 23.9474L161.144 24.0701C159.029 32.3212 152.476 36.035 148.491 36.035C146.643 36.035 145.118 35.3869 144.035 34.0905C142.357 32.0934 141.833 28.6949 142.532 24.4905C152.458 24.2978 159.117 19.2701 159.117 14.6803C159.134 13.5766 158.767 12.5956 158.068 11.8599C157.159 10.9314 155.691 10.4234 153.926 10.4234C152.161 10.4234 149.54 11.0891 147.478 12.3504H136.293L136.608 10.8964C137.849 5.32555 141.204 1.13869 144.454 1.13869C145.147 1.13869 145.416 1.2438 145.643 1.48905C145.905 1.76934 145.94 2.2073 145.905 2.80292C145.887 3.59124 146.115 4.25693 146.586 4.71241C147.041 5.15036 147.67 5.34307 148.369 5.29051C149.19 5.20292 149.662 4.78248 149.924 4.44964C150.274 3.99416 150.414 3.39854 150.326 2.85547C150.117 1.06861 148.229 0 145.293 0C140.103 0 136.049 4.71241 134.144 8.75912C132.868 11.5971 130.893 12.9109 127.94 12.9109H127.241L127.713 10.7562L127.153 10.3358L127.084 10.3883C124.217 13.1737 119.412 12.9109 119.412 12.9109V13.7869H120.198C121.456 13.7693 122.348 13.8569 122.819 14.435C123.274 14.9956 123.326 15.9942 122.977 17.6058L122.417 20.3212L121.491 24.7007C120.775 27.3285 119.586 31.7431 116.93 34.3708C115.672 35.562 114.239 36.2978 112.666 36.5255C112.404 36.5606 112.124 36.5781 111.862 36.5956C111.722 36.5956 111.6 36.5956 111.548 36.5956H102.617C101.726 36.5956 101.167 36.4204 100.87 36.0701C100.503 35.6146 100.485 34.8088 100.783 33.3723L106.584 5.90365C107.388 2.06715 109.031 1.33139 111.425 1.33139H111.548V0.472993H99.6291V1.3489H99.7515C101.254 1.3489 102.216 1.6292 102.775 2.31241C103.369 3.04818 103.491 4.20438 103.159 5.85109L99.2447 24.3679C97.0427 32.4088 90.5767 36.035 86.6796 36.035C84.6939 36.035 83.0621 35.2993 81.8738 33.8978C80.1262 31.8307 79.532 28.4847 80.1961 24.4905C90.1223 24.2978 96.7806 19.2701 96.7806 14.6803C96.7981 13.5766 96.4311 12.5956 95.732 11.8599C94.8233 10.9314 93.3553 10.4234 91.5903 10.4234C84.8097 10.4234 78.3262 16.8 76.8408 24.9285C76.701 25.6818 76.5961 26.4175 76.5612 27.1533C74.9884 32.5489 71.8602 36 70.4097 36H70.3398C70.0253 36 69.7981 35.8774 69.6233 35.6321C68.9942 34.7562 69.2214 32.3387 70.3398 28.4321L72.2971 21.5474C73.6777 16.5898 73.7476 13.4015 72.5068 11.7547C71.8252 10.8613 70.7942 10.4234 69.3087 10.4234C64.7825 10.4234 59.9767 16.0818 55.9922 26.0321L57.1456 21.5474C58.4388 16.3971 58.4738 13.2613 57.2505 11.6847C56.5864 10.8438 55.5903 10.4234 54.1748 10.4234C49.5262 10.4234 44.0913 16.8876 40.3864 26.6978L42.7456 15.5036L43.7592 10.8088L43.2 10.3883L43.1301 10.4409C40.5961 12.2102 39.0932 12.6482 36.699 12.9109H36.5942V13.8044H36.734C37.8524 13.7693 38.6039 13.8569 39.0058 14.3299C39.4252 14.838 39.4427 15.8715 39.0408 17.6584L36.9786 27.5737C35.5981 32.9869 32.435 35.9299 31.1942 35.9299C30.7527 35.9299 30.635 35.8248 30.4427 35.5796C29.7437 34.7037 29.8136 32.2686 30.6524 28.3095L33.2913 15.5036L34.235 11.1942L34.3223 10.8263L33.7631 10.4058L33.6932 10.4584C33.6932 10.4584 33.6932 10.4584 33.6757 10.4759C31.7709 12.2978 29.0447 12.8058 27.4194 12.946C27.3146 12.946 27.1922 12.9635 27.1922 12.9635C26.4757 13.0161 26.0214 12.981 26.0214 12.981V13.8569H26.8078C28.066 13.8394 28.9573 13.927 29.4291 14.5051C29.8311 15.0131 29.9709 15.8715 29.5864 17.6759L28.066 25.0336C27.3495 27.6964 26.1437 31.8657 23.5922 34.3883C22.334 35.5796 20.901 36.3153 19.3282 36.5431C19.066 36.5781 18.7864 36.5956 18.5243 36.6131C18.3845 36.6131 18.2621 36.6131 18.2097 36.6131H8.00388C7.11262 36.6131 6.5534 36.438 6.25631 36.0876C5.88932 35.6321 5.87184 34.8263 6.16893 33.3898L11.9184 5.92117C12.7223 2.08467 14.3651 1.3489 16.7592 1.3489H16.8816V0.472993H4.96311V1.3489H5.08544C6.58835 1.3489 7.54952 1.6292 8.10874 2.31241C8.70291 3.04818 8.82524 4.20438 8.4932 5.85109L4.57864 24.3679L3.51262 29.4307L2.90097 32.3212C2.07961 36.2803 1.2932 36.6832 0.104854 36.8759H0V37.7693H18.4019C22.0019 37.7343 24.6058 36.2102 26.5282 33.4599C26.4757 35.019 26.7204 36.1927 27.2621 36.9985C27.6641 37.5766 28.2233 37.9445 28.9398 38.0847C30.8621 38.365 33.7631 36.8234 35.8427 32.8467L34.8117 37.7693H38.0272V37.6642C39.6874 30.6745 42.1864 24.1927 45.0699 19.4453C47.7262 15.0657 50.4699 12.5606 52.5845 12.5606C53.7379 12.5606 54.1922 13.2613 54.1922 13.2613C55.1359 14.4876 54.9786 17.3781 53.7204 22.0905L49.5612 37.7693H52.934L52.9689 37.6818C57.5476 22.4409 63.332 12.5781 67.7185 12.5781C67.7185 12.5781 68.767 12.5255 69.3961 13.3314C70.3398 14.5927 70.1476 17.5533 68.8019 22.108L66.5825 29.8336C65.6388 33.0394 65.5689 35.4394 66.3379 36.7883C66.7049 37.419 67.2466 37.8219 67.9631 37.9796C69.2563 38.2774 70.8641 37.6642 72.3845 36.2803C73.5728 35.2117 75.233 33.162 76.5612 29.5358C77.0505 34.8788 80.4408 38.2949 85.3165 38.2949C90.1922 38.2949 94.8932 35.2467 98.1262 29.4307L97.5146 32.3212C96.6932 36.2803 95.9068 36.6832 94.7185 36.8759H94.6136V37.7693H111.722C118.153 37.7168 123.012 32.8818 124.724 24.8234L126.996 13.8394V13.8044H132.693L128.027 35.8248C126.489 42.9723 122.994 46.7562 118.468 46.9489H118.363L118.293 47.8248H118.433C124.864 47.7723 129.757 43.3927 131.47 35.3693L135.996 13.8044H145.451C142.252 16.5372 139.963 20.5664 139.177 24.9109C138.408 28.9401 139.142 32.5489 141.239 35.0891C142.951 37.1562 145.416 38.2949 148.194 38.2949C153.28 38.2949 159.816 33.3898 161.965 24.2803L162 24.1577L161.179 23.9299V23.9474ZM80.3884 23.4745C81.6291 17.0453 86.5049 11.4219 90.8214 11.4219C92.534 11.4219 93.7049 12.508 93.8621 14.3124C93.967 15.9942 93.1981 17.9212 91.7825 19.4453C90.1223 21.2496 86.8019 23.4394 80.3709 23.5971C80.3709 23.562 80.3884 23.527 80.3884 23.4745ZM142.707 23.4745C143.948 17.0453 148.823 11.4219 153.14 11.4219C154.877 11.4219 156.023 12.508 156.181 14.3124C156.285 15.9942 155.517 17.9212 154.101 19.4453C152.441 21.2496 149.12 23.4394 142.689 23.5971C142.689 23.562 142.707 23.527 142.707 23.4745Z" fill="#231F20"/>
</g>
<defs>
<clipPath id="clip0_7083_1330">
<rect width="162" height="48" fill="white"/>
</clipPath>
</defs>
</svg>
