<svg fill="currentColor" version="1.1" xmlns="http://www.w3.org/2000/svg" viewBox="0 0 116.9 43.8" xml:space="preserve"><path d="M71.4,14.2v2.5h3.2v-2.5c0-0.3-0.2-0.6-0.5-0.7c-0.3-0.2-0.7-0.2-1.1-0.2c-0.5,0-0.8,0.1-1.2,0.2C71.6,13.7,71.4,13.9,71.4,14.2 M71.4,32.5h-1.8V14.2c0-0.7,0.2-1.2,0.5-1.7c0.3-0.4,0.8-0.7,1.3-0.9c0.5-0.2,1.1-0.3,1.7-0.3c0.9,0,1.8,0.2,2.4,0.7c0.7,0.5,1,1.2,1,2.2v18.3h-1.9v-14h-3.2V32.5L71.4,32.5z"/><path d="M98.7,14.2v2.5h3.2v-2.5c0-0.3-0.2-0.6-0.5-0.7c-0.3-0.2-0.7-0.2-1.1-0.2c-0.5,0-0.8,0.1-1.2,0.2C98.8,13.7,98.7,13.9,98.7,14.2 M98.7,32.5h-1.8V14.2c0-0.7,0.2-1.2,0.5-1.7c0.3-0.4,0.8-0.7,1.3-0.9c0.5-0.2,1.1-0.3,1.7-0.3c0.9,0,1.8,0.2,2.4,0.7c0.7,0.5,1,1.2,1,2.2v18.3h-1.9v-14h-3.2V32.5L98.7,32.5z"/><path d="M116.9,0v43.8H0V0H116.9L116.9,0z M1.6,42.3h113.8V1.6H1.6V42.3L1.6,42.3z"/><path d="M20.2,32.4l-1.9-8.8c0.9-0.9,1.6-2.5,1.6-5.7c0-5.7-2.4-6.6-3.8-6.6H13v21.2h1.8v-8h1.3c0.2,0,0.3,0,0.5,0l1.7,8H20.2L20.2,32.4z M14.8,22.6v-9.5h1.3c1.8,0,2,3.3,2,4.8c0,1.4-0.2,4.8-2,4.8H14.8L14.8,22.6z"/><path d="M47.6,12c-0.7-0.5-1.5-0.7-2.4-0.7c-0.6,0-1.1,0.1-1.7,0.3c-0.5,0.2-1,0.5-1.3,0.9c-0.3,0.4-0.5,1-0.5,1.7v18.3h1.8V14.2c0-0.3,0.2-0.6,0.5-0.7c0.3-0.2,0.7-0.2,1.2-0.2c0.4,0,0.8,0.1,1.1,0.2c0.3,0.2,0.5,0.4,0.5,0.7v18.3h1.9V14.2C48.7,13.2,48.3,12.4,47.6,12"/><path d="M89,11.8c-0.7-0.5-1.5-0.7-2.4-0.7c-0.6,0-1.1,0.1-1.7,0.3c-0.5,0.2-1,0.5-1.3,0.9c-0.3,0.4-0.5,1-0.5,1.7v18.3h1.8V14c0-0.3,0.2-0.6,0.5-0.7c0.3-0.2,0.7-0.2,1.2-0.2c0.4,0,0.8,0.1,1.1,0.2c0.3,0.2,0.5,0.4,0.5,0.7v18.3h1.9V14C90.1,13,89.7,12.2,89,11.8"/><path d="M62.7,20.6h-3.3v1.9h1.4l0,7.3c0,0.3-0.2,0.6-0.5,0.7c-0.3,0.2-0.7,0.2-1.2,0.2c-0.4,0-0.8-0.1-1.1-0.2c-0.3-0.2-0.5-0.4-0.5-0.7l0-15.5c0-0.3,0.2-0.6,0.5-0.7c0.3-0.2,0.7-0.2,1.2-0.2c0.4,0,0.8,0.1,1.1,0.2c0.3,0.2,0.5,0.4,0.5,0.7v1.2h1.9v-1.2c0-1-0.3-1.7-1-2.2c-0.7-0.5-1.5-0.7-2.4-0.7c-0.6,0-1.1,0.1-1.7,0.3c-0.5,0.2-1,0.5-1.3,0.9c-0.3,0.4-0.5,1-0.5,1.7l0,15.5c0,1,0.3,1.7,1,2.2c0.7,0.5,1.5,0.7,2.4,0.7c0.6,0,1.1-0.1,1.7-0.3c0.5-0.2,1-0.5,1.3-0.9c0.3-0.4,0.5-1,0.5-1.7L62.7,20.6L62.7,20.6z"/><path d="M27.8,10.6c0,0.3,0.1,0.7,0.2,1c0.2,0.5,0.6,1,1,1.4c0.2,0.1,0.4,0.3,0.7,0.2c0.1,0,0.1-0.1,0.2-0.1c0.3-0.2,0.6-0.6,0.7-0.9c0-0.1,0-0.2,0-0.3c0-0.3-0.1-0.7-0.2-1c-0.2-0.6-0.4-1.1-0.8-1.6c-0.1-0.2-0.3-0.3-0.5-0.3c-0.6,0-1.2,0.8-1.3,1.4c0,0,0,0.1,0,0.1C27.8,10.5,27.8,10.5,27.8,10.6C27.8,10.5,27.8,10.5,27.8,10.6L27.8,10.6z"/><path d="M27,17.3c0.3,0.2,1-0.2,1.3-0.4c0.3-0.2,0.7-0.7,1.1-0.9c-0.1,0.2-0.1,0.7-0.1,1c0,0.3,0,0.6,0.1,0.8c0.3,1,0.9,1.1,1.4,1.1c0.2,0,0.4-0.2,0.5-0.4c0.2-0.4,0.5-1.3,0.5-2.5c0-0.4,0-0.8-0.1-1.2c-0.1-0.3-0.2-0.7-0.4-0.7c-0.1,0-0.4-0.1-0.8,0.3c-0.1,0-0.2,0.1-0.2,0.1c0-0.3-0.3-0.6-0.3-0.6c-0.2-0.2-0.4-0.3-0.6-0.3c-0.1,0-0.3,0-0.4,0c-0.9,0.1-1.4,0.8-1.9,1.5c-0.3,0.5-0.4,0.9-0.4,1.3C26.6,16.8,26.9,17.2,27,17.3L27,17.3z"/><path d="M25.4,24.2c0,0.1,0,0.3,0.2,0.4c0.3,0.3,1,0.8,1.7,1c0.2,0,0.4,0,0.6,0c0.9-0.2,2.6-0.8,3.2-1.8c0.1-0.1,0.1-0.1,0-0.2c0-0.1,0-0.1-0.1-0.2c-0.3-0.2-2.6-1.2-3-1.3c-0.4-0.1-1.2,0.5-1.5,0.7c-0.1,0.1-1.1,0.8-1.2,1.4C25.4,24.1,25.4,24.2,25.4,24.2C25.4,24.2,25.4,24.2,25.4,24.2L25.4,24.2z"/><path d="M30.7,27.8c0-0.1,0-0.2-0.1-0.2c-0.8-0.3-3.3,0.3-4.7,2.1c-0.4,0.5-0.8,1.4-0.8,1.9c0,0.1,0,0.2,0,0.3c0.1,0.1,0.6,0.5,0.9,0.6c0.2,0.1,0.4,0,0.7-0.1c1.7-0.8,2.9-2.4,3.8-4C30.6,28.1,30.8,27.9,30.7,27.8L30.7,27.8z"/><path d="M30.7,12.4c0.1,0.2,0.4,0.3,0.7,0.2c0,0.1,0,0.2,0,0.3c0,0.3,0.1,0.7,0.6,1.2c0.2,0.3,0.4,0.5,0.8,0.6c0.4,0.1,0.7-0.1,1-0.4c0.6-0.5,1-1.1,1.3-1.8c0.1-0.2,0.1-0.5,0.1-0.7c0,0,0,0,0,0c0,0,0-0.1,0-0.1c0-0.2-0.1-0.5-0.3-0.6c-0.5-0.4-2.1,0.4-2.6,0.7c0,0,0,0,0,0c0,0,0-0.1,0.1-0.1C32.6,11,33,10.2,33,9.3c0-0.2,0-0.4-0.1-0.6c-0.1-0.5-0.3-0.9-0.6-1.3c-0.3-0.5-0.5-0.3-0.7,0.2c-0.2,0.4-0.4,0.9-0.5,1.3c-0.2,0.5-0.3,1-0.4,1.6c-0.1,0.4-0.1,0.8-0.1,1.3c0,0.1,0,0.1,0,0.2C30.6,12.1,30.6,12.3,30.7,12.4L30.7,12.4z"/><path d="M37.9,17.5c0-0.6,0-1.1-0.1-1.7c0-0.2-0.1-0.3-0.2-0.4c-0.6-0.1-1.9,1.6-2.3,2.4c-0.4,0.8-1.1,2.4-1.5,4.5c0,0.2-0.1,0.5-0.1,0.9c0,0.3,0,0.6,0.1,0.9c0.1,0.4,0.3,0.5,0.6,0.2c0,0,2.4-2.3,3.1-4.1C37.7,19.3,37.9,18.4,37.9,17.5L37.9,17.5z"/><path d="M32.8,22.4c-0.1-0.4-0.8-2.3-1.1-2.5c0,0,0,0.1,0,0.2c0,0,0,0,0,0c0.1,0.6,0.5,1.9,0.5,3c0,0.3,0,0.7,0,1c0,1.1-0.1,2.2-0.3,3.3c-0.2,1.3-0.5,2.6-0.8,3.9c-0.2,1-0.8,3.3-1.5,5c-0.1,0.1-0.1,0.3-0.1,0.4c-0.1,0.7,1.1,0.8,1.8-0.6c0.6-1.1,0.9-2.3,1.1-3.5c0.2-1.2,0.5-2.5,0.6-3.7c0.1-0.6,0.1-1.3,0.2-1.9c0-0.2,0-0.4,0-0.6C33.4,24.8,33.2,23.6,32.8,22.4L32.8,22.4z"/></svg>
